<svg xmlns="http://www.w3.org/2000/svg" width="47.712" height="38.766" viewBox="0 0 47.712 38.766">
  <path id="twitter" d="M47.712,4.622a17.648,17.648,0,0,1-5.666,1.491A9.635,9.635,0,0,0,46.37.745a18.8,18.8,0,0,1-6.262,2.386A9.68,9.68,0,0,0,32.951,0a9.831,9.831,0,0,0-9.841,9.841,11.509,11.509,0,0,0,.3,2.236A28.064,28.064,0,0,1,3.28,1.789a9.384,9.384,0,0,0-1.342,4.92,10.087,10.087,0,0,0,4.324,8.2,9.109,9.109,0,0,1-4.473-1.193v.149a9.756,9.756,0,0,0,7.9,9.542,14.69,14.69,0,0,1-2.535.3,7.259,7.259,0,0,1-1.789-.149,9.959,9.959,0,0,0,9.1,6.859A19.145,19.145,0,0,1,2.386,34.591,12.826,12.826,0,0,1,0,34.442a28.666,28.666,0,0,0,15.059,4.324c18.041,0,27.882-14.91,27.882-27.882V9.542A18.785,18.785,0,0,0,47.712,4.622Z" fill="#fff"/>
</svg>
