<svg id="Group_219" data-name="Group 219" xmlns="http://www.w3.org/2000/svg" xmlns:xlink="http://www.w3.org/1999/xlink" width="239.102" height="64.68" viewBox="0 0 239.102 64.68">
  <defs>
    <clipPath id="clip-path">
      <rect id="Rectangle_19" data-name="Rectangle 19" width="239.102" height="64.68" fill="none"/>
    </clipPath>
  </defs>
  <g id="Group_22" data-name="Group 22" clip-path="url(#clip-path)">
    <path id="Path_2" data-name="Path 2" d="M47.558,0l3.983,4.232V20.4L32.34,0H15.219L19.2,4.232V20.4L0,0V20.212C0,34.361,6.064,50.531,32.34,64.68A84.957,84.957,0,0,0,49.623,52.725L32.34,34.361V18.191L57.031,44.426A40.506,40.506,0,0,0,64.68,20.212V0Z" fill="#fff"/>
    <path id="Path_3" data-name="Path 3" d="M119.741,38.531V17.451a13.211,13.211,0,0,1,1.273-5.138l.386-.938H110.275l.491.983c1.108,2.216,1.3,3.412,1.3,8V31.861c0,6.169,0,11.5-8.7,11.592h-.176c-6.914,0-7.487-5.483-7.487-11.593V20.354a30.016,30.016,0,0,1,.783-8.1l.276-.882H86.015l.393.941c1.115,2.666,1.475,3.878,1.475,8.037V31.861c0,6.163,0,17.634,13.969,17.634a15.4,15.4,0,0,0,10.573-3.968v2.8h9.22l-.5-.987c-1.259-2.468-1.4-3.373-1.4-8.805" transform="translate(-8.745 -1.157)" fill="#fff"/>
    <path id="Path_4" data-name="Path 4" d="M155.03,12.348c1.123,2.345,1.155,2.968,1.155,6.326V33.555L142.119,16.72l-.317-.391a23.365,23.365,0,0,1-3.155-4.547l-.178-.406H127.281l.772,1.074c1.312,1.825,1.91,2.659,1.91,7.344V39.856c0,4.219-.376,5.62-1.436,7.45l-.589,1.02h9.58l-.456-.969c-1.224-2.6-1.514-3.361-1.514-7.347V20.546l23.189,27.779h3.084v-29.6c0-3.583.081-4.379,1.1-6.361l.5-.988h-8.858Z" transform="translate(-12.941 -1.157)" fill="#fff"/>
    <path id="Path_5" data-name="Path 5" d="M215.58,46.359a15.826,15.826,0,0,1-1.323-4.757l-3-23.274a24.066,24.066,0,0,1-.249-3.32,3.908,3.908,0,0,1,.891-2.494l1.043-1.138H201.922l-.564.022-.107.55a21.56,21.56,0,0,1-1.482,4.988l-7.361,17.534-7.267-17.722a11.88,11.88,0,0,1-1.074-4.692v-.679H172.641l.46.969c.064.136.128.267.193.4A5.309,5.309,0,0,1,174,15.466a8.581,8.581,0,0,1-.169,1.361c-.069.392-.14.8-.181,1.191L170.291,41.6c-.337,2.644-.658,4.014-1.773,5.663l-.717,1.059h9.252l-.491-.983a7.849,7.849,0,0,1-.9-3.515,24.9,24.9,0,0,1,.266-3.045l2.932-19.837,11.352,27.38h2.125l11.712-27.711,2.537,20.56c.02.282.045.551.07.814.041.44.081.856.081,1.279a10.414,10.414,0,0,1-1.061,4.1l-.424.954h11.1L216,47.4c-.145-.369-.284-.712-.418-1.04" transform="translate(-17.061 -1.157)" fill="#fff"/>
    <path id="Path_6" data-name="Path 6" d="M252.962,40.385a16.928,16.928,0,0,1-9.951,3.6c-9.861,0-13.374-7.435-13.374-14.392,0-6.737,3.326-13.934,12.661-13.934a13.6,13.6,0,0,1,9.772,3.991l1.192,1.381v-9.28l-.451-.161a29.651,29.651,0,0,0-9.9-1.515c-12.692,0-21.555,8.068-21.555,19.62,0,11.95,8.541,19.673,21.759,19.673a40.988,40.988,0,0,0,8.752-1.137l.411-.091,2.159-8.764Z" transform="translate(-22.505 -1.024)" fill="#fff"/>
    <path id="Path_7" data-name="Path 7" d="M260.762,13.246c.007.179.029.509.62.509.534,0,.6-.331.6-.459,0-.288-.232-.346-.591-.435a2.276,2.276,0,0,1-.7-.228.578.578,0,0,1-.267-.5c0-.525.495-.753.98-.753a1.006,1.006,0,0,1,.723.253.657.657,0,0,1,.157.438h-.371c-.018-.321-.288-.393-.542-.393-.356,0-.57.162-.57.418,0,.228.149.305.463.381a2.445,2.445,0,0,1,.83.27.591.591,0,0,1,.257.513c0,.456-.357.8-1.016.8a1.033,1.033,0,0,1-.8-.293.8.8,0,0,1-.15-.52Z" transform="translate(-26.474 -1.157)" fill="#fff"/>
    <path id="Path_8" data-name="Path 8" d="M263.169,11.432h.631l.727,2.119.745-2.119h.587V14h-.349V11.688L264.665,14h-.339l-.813-2.3V14h-.345Z" transform="translate(-26.757 -1.162)" fill="#fff"/>
  </g>
</svg>
