<svg xmlns="http://www.w3.org/2000/svg" width="56.081" height="39.512" viewBox="0 0 56.081 39.512">
  <path id="youtube" d="M54.9,6.182a7.1,7.1,0,0,0-4.971-5C45.566,0,28.041,0,28.041,0S10.515,0,6.118,1.179a7.043,7.043,0,0,0-4.971,5C0,10.579,0,19.756,0,19.756S0,28.933,1.179,33.33a7.1,7.1,0,0,0,4.971,5c4.365,1.179,21.891,1.179,21.891,1.179s17.525,0,21.923-1.179a7.043,7.043,0,0,0,4.971-5c1.147-4.4,1.147-13.574,1.147-13.574S56.081,10.579,54.9,6.182ZM22.3,28.1v-16.7l14.658,8.348Z" fill="#fff"/>
</svg>
